<svg width="30" height="30" viewBox="0 0 30 30" fill="none"
  xmlns="http://www.w3.org/2000/svg">
  <g clip-path="url(#clip0)">
    <path d="M0 0V30H30V0H0Z" stroke="#0D2025" stroke-width="0.25" stroke-miterlimit="10"/>
    <path d="M22.414 21.373H21.4906C21.3277 21.373 21.2009 21.2462 21.1919 21.0833V16.6928C21.1919 14.8914 20.9565 13.6421 20.178 12.6735C19.4719 11.7863 18.4037 11.2432 16.7833 11.2432C14.8008 11.2432 13.3977 12.076 12.6916 13.3796V6.47253C12.6916 6.14664 12.4291 5.87506 12.0941 5.87506H8.83521H7.8847C7.55881 5.87506 7.28723 6.13758 7.28723 6.47253V8.32829C7.28723 8.49124 7.42302 8.62702 7.58596 8.62702H8.53648C8.69942 8.62702 8.82616 8.75376 8.83521 8.9167V24.1249H12.6916V17.8153C12.6916 15.8871 13.4972 14.6379 15.1448 14.6379C16.7833 14.6379 17.3355 15.9143 17.3355 17.6886V22.939C17.3355 23.5999 17.8696 24.134 18.5304 24.134H21.2009H22.1243C22.4502 24.134 22.7218 23.8714 22.7218 23.5365V21.6717C22.7127 21.4997 22.5769 21.373 22.414 21.373Z" stroke="#0D2025" stroke-width="0.25" stroke-miterlimit="10"/>
    <path d="M0 0V30H30V0H0Z" fill="#0D2025"/>
    <path d="M22.414 21.373H21.4906C21.3277 21.373 21.2009 21.2462 21.1919 21.0833V16.6928C21.1919 14.8914 20.9565 13.6421 20.178 12.6735C19.4719 11.7863 18.4037 11.2432 16.7833 11.2432C14.8008 11.2432 13.3977 12.076 12.6916 13.3796V6.47253C12.6916 6.14664 12.4291 5.87506 12.0941 5.87506H8.83521H7.8847C7.55881 5.87506 7.28723 6.13758 7.28723 6.47253V8.32829C7.28723 8.49124 7.42302 8.62702 7.58596 8.62702H8.53648C8.69942 8.62702 8.82616 8.75376 8.83521 8.9167V24.1249H12.6916V17.8153C12.6916 15.8871 13.4972 14.6379 15.1448 14.6379C16.7833 14.6379 17.3355 15.9143 17.3355 17.6886V22.939C17.3355 23.5999 17.8696 24.134 18.5304 24.134H21.2009H22.1243C22.4502 24.134 22.7218 23.8714 22.7218 23.5365V21.6717C22.7127 21.4997 22.5769 21.373 22.414 21.373Z" fill="white"/>
  </g>
  <defs>
    <clipPath id="clip0">
      <rect width="30" height="30" fill="white"/>
    </clipPath>
  </defs>
</svg>
