<svg width="340" height="91" viewBox="0 0 340 91" fill="none"
  xmlns="http://www.w3.org/2000/svg">
  <path d="M123.035 15.4271V37.1984H144.809V15.4271H123.035ZM139.366 31.7556H128.479V20.8699H139.366V31.7556Z" fill="#051F26"/>
  <path d="M146.75 58.4374H145.273C145.015 58.4374 144.809 58.2314 144.809 57.9739V54.6V43.1306H138.584V45.9378C137.528 44.0234 135.21 42.6412 132.317 42.6412C127.105 42.6412 123.035 47.0796 123.035 52.9345C123.035 58.798 127.105 63.2278 132.317 63.2278C135.33 63.2278 137.606 61.7598 138.584 59.9741V60.8841C138.584 61.9058 139.417 62.7385 140.439 62.7385H144.809H146.277C146.792 62.7385 147.205 62.3264 147.205 61.8113V58.901C147.213 58.6435 147.007 58.4374 146.75 58.4374ZM133.905 57.9395C131.098 57.9395 129.226 55.6645 129.226 52.9345C129.226 50.2474 131.098 47.9295 133.905 47.9295C136.713 47.9295 138.584 50.2474 138.584 52.9345C138.584 55.6645 136.713 57.9395 133.905 57.9395Z" fill="#051F26"/>
  <path d="M86.3308 42.6412C83.2399 42.6412 80.9561 43.8603 79.8571 45.9808V44.0577C79.8571 43.5426 79.445 43.1306 78.9298 43.1306H78.6379H72.147C71.6318 43.1306 71.2197 43.5426 71.2197 44.0577V46.968C71.2197 47.2256 71.4258 47.4316 71.6833 47.4316H73.1601C73.4177 47.4316 73.6237 47.6376 73.6237 47.8952V61.5709V61.5624V62.7385H79.8485V52.8916C79.8485 49.8783 81.1106 47.9295 83.6778 47.9295C86.245 47.9295 87.095 49.9212 87.095 52.6942V62.7471H93.3197V51.1059C93.3197 48.2987 92.9934 46.3842 91.7742 44.8819C90.7268 43.577 89.0182 42.6412 86.3308 42.6412Z" fill="#051F26"/>
  <path d="M163.2 42.8043C160.349 42.8043 158.031 44.4698 157.138 46.307V44.9849C157.138 43.9633 156.306 43.1306 155.284 43.1306H150.914H149.437C148.922 43.1306 148.51 43.5426 148.51 44.0577V46.968C148.51 47.2256 148.716 47.4316 148.973 47.4316H150.45C150.699 47.4316 150.905 47.6291 150.914 47.8866V61.8113C150.914 62.3264 151.326 62.7385 151.841 62.7385H152.124H158.598C159.113 62.7385 159.525 62.3264 159.525 61.8113V58.901C159.525 58.6435 159.319 58.4375 159.062 58.4375H157.593C157.336 58.4375 157.13 58.2314 157.13 57.9739V55.0893C157.13 50.2474 159.371 48.4961 162.865 48.4961C163.595 48.4961 164.127 48.582 164.977 48.7794V43.122C164.419 42.8816 163.853 42.8043 163.2 42.8043Z" fill="#051F26"/>
  <path d="M43.0667 58.4375H41.6242C41.3753 58.4375 41.1692 58.24 41.1606 57.991V51.1489C41.1606 48.3416 40.7914 46.3842 39.5722 44.8819C38.4732 43.4997 36.8076 42.6412 34.2833 42.6412C31.1924 42.6412 28.9945 43.9461 27.8955 45.9808V35.1895C27.8955 34.6744 27.4833 34.2624 26.9682 34.2624H21.8768H20.4C19.8849 34.2624 19.4727 34.6744 19.4727 35.1895V38.0998C19.4727 38.3574 19.6788 38.5634 19.9364 38.5634H21.4131C21.6621 38.5634 21.8682 38.7694 21.8768 39.0184V62.7471H27.8955V52.8916C27.8955 49.8783 29.1576 47.9295 31.7248 47.9295C34.2919 47.9295 35.1419 49.9212 35.1419 52.6942V60.8842C35.1419 61.9058 35.9748 62.7385 36.9965 62.7385H41.1606H42.603C43.1182 62.7385 43.5303 62.3264 43.5303 61.8113V58.901C43.5303 58.6435 43.3157 58.4375 43.0667 58.4375Z" fill="#051F26"/>
  <path d="M69.4339 58.4374H67.9828C67.7339 58.4374 67.5278 58.2314 67.5192 57.9825V43.1306H61.303V45.9378C60.247 44.0234 57.9288 42.6412 55.0354 42.6412C49.8238 42.6412 45.7541 47.0796 45.7541 52.9345C45.7541 58.798 49.8238 63.2278 55.0354 63.2278C58.049 63.2278 60.3243 61.7598 61.303 59.9741V60.8841C61.303 61.9058 62.1359 62.7385 63.1576 62.7385H67.5278H68.9702C69.4854 62.7385 69.8975 62.3264 69.8975 61.8113V58.901C69.9061 58.6435 69.6914 58.4374 69.4339 58.4374ZM56.6238 57.9395C53.8162 57.9395 51.9445 55.6645 51.9445 52.9345C51.9445 50.2474 53.8162 47.9295 56.6238 47.9295C59.4313 47.9295 61.303 50.2474 61.303 52.9345C61.303 55.6645 59.4313 57.9395 56.6238 57.9395Z" fill="#051F26"/>
  <path d="M120.485 43.122H114.913C114.896 43.122 114.879 43.1306 114.862 43.1306H114.647C113.625 43.1306 112.792 43.9633 112.792 44.9849V45.9378C111.616 43.783 109.255 42.6412 106.525 42.6412C101.116 42.6412 97.2005 47.0796 97.2005 52.8916C97.2005 58.7894 101.227 62.9445 106.559 62.9445C109.65 62.9445 111.771 61.5624 112.784 59.8883V62.9789C112.784 66.1896 110.835 67.5375 108.105 67.5375C105.177 67.5375 103.872 65.9922 103.666 64.2409H97.4409C97.647 68.5934 100.248 72.139 108.311 72.139C115.514 72.139 119.017 69.3317 119.017 62.6183V47.8866C119.017 47.6291 119.223 47.423 119.481 47.423H120.958C121.215 47.423 121.421 47.217 121.421 46.9594V44.0492C121.413 43.5341 121.001 43.122 120.485 43.122ZM108.096 57.9395C105.288 57.9395 103.417 55.6645 103.417 52.9345C103.417 50.2904 105.245 47.9295 108.096 47.9295C110.904 47.9295 112.775 50.2475 112.775 52.9345C112.784 55.6989 110.869 57.9395 108.096 57.9395Z" fill="#051F26"/>
  <path d="M190.743 62.3264H188.108L183.54 45.9636L178.972 62.3264H176.302L170.404 43.7487H172.893L177.667 60.3261L182.209 43.783H184.982L189.55 60.1459L194.289 43.7487H196.608L190.743 62.3264Z" fill="#051F26"/>
  <path d="M215.05 53.0547C215.05 58.4975 211.925 62.8157 206.026 62.8157C200.128 62.8157 197.003 58.4975 197.003 53.0547C197.003 47.5775 200.128 43.2593 206.026 43.2593C211.925 43.2593 215.05 47.5775 215.05 53.0547ZM212.663 53.0547C212.663 47.9982 209.89 45.0107 206.026 45.0107C202.163 45.0107 199.389 47.9982 199.389 53.0547C199.389 58.1112 202.163 61.0988 206.026 61.0988C209.881 61.0988 212.663 58.1112 212.663 53.0547Z" fill="#051F26"/>
  <path d="M225.834 43.4654V45.1824C222.606 44.9334 220.21 46.9423 220.21 51.8872V62.3264H218.029V43.7487H220.21V47.1225L221.052 45.6202C221.653 44.5385 222.649 43.6886 223.859 43.4224C224.151 43.3624 224.443 43.328 224.743 43.328C225.13 43.328 225.516 43.3624 225.834 43.4654Z" fill="#051F26"/>
  <path d="M230.041 57.4073C230.041 58.2143 230.041 58.8495 230.075 59.4076C230.144 60.6009 230.676 60.9185 232.256 60.7382V62.3522C231.698 62.4552 231.097 62.4552 230.539 62.4552C229.096 62.4552 228.015 61.9659 227.903 59.9656C227.869 59.3303 227.869 58.592 227.869 57.4759V36.5116H230.049V57.4073H230.041Z" fill="#051F26"/>
  <path d="M250.166 62.3264H247.985V58.8839L247.822 59.1586C246.491 61.3649 244.13 62.7986 241.555 62.8157C241.537 62.8157 241.512 62.8157 241.494 62.8157C236.3 62.8157 233.209 58.7808 233.209 53.2607C233.209 46.5216 237.356 43.2508 242.061 43.2508H242.113C244.439 43.2593 246.586 44.4956 247.745 46.513L247.994 46.9423V36.5116H250.175V62.3264H250.166ZM247.994 53.4754V52.0674C247.994 46.7963 244.8 45.0107 242.061 45.0107C238.335 45.0107 235.596 47.9639 235.596 52.986C235.596 57.4502 237.742 61.0988 241.812 61.0988C245.109 61.0988 247.994 59.0985 247.994 53.4754Z" fill="#051F26"/>
  <path d="M272.618 62.3264H269.982L265.415 45.9636L260.847 62.3264H258.177L252.278 43.7487H254.768L259.542 60.3261L264.084 43.783H266.857L271.425 60.1459L276.164 43.7487H278.482L272.618 62.3264Z" fill="#051F26"/>
  <path d="M283.187 39.7481C283.187 40.5551 282.552 41.2247 281.711 41.2247C280.904 41.2247 280.234 40.5551 280.234 39.7481C280.234 38.9068 280.904 38.2715 281.711 38.2715C282.552 38.2715 283.187 38.8982 283.187 39.7481ZM280.62 62.3264V43.7487H282.801V62.3264H280.62Z" fill="#051F26"/>
  <path d="M302.677 62.3264H300.496V58.8839L300.333 59.1586C299.003 61.3649 296.641 62.7986 294.066 62.8157C294.049 62.8157 294.023 62.8157 294.006 62.8157C288.811 62.8157 285.72 58.7808 285.72 53.2607C285.72 46.5216 289.867 43.2508 294.572 43.2508C294.589 43.2508 294.607 43.2508 294.624 43.2508C296.993 43.2679 299.166 44.6158 300.351 46.6761L300.505 46.9423V36.5116H302.686V62.3264H302.677ZM300.496 53.4754V52.0674C300.496 46.7963 297.303 45.0107 294.564 45.0107C290.837 45.0107 288.098 47.9639 288.098 52.986C288.098 57.4502 290.245 61.0988 294.315 61.0988C297.62 61.0988 300.496 59.0985 300.496 53.4754Z" fill="#051F26"/>
  <path d="M322.193 53.69H308.112C308.361 59.1672 311.134 61.0988 314.157 61.0988C316.758 61.0988 319.076 59.5191 319.737 56.4629H322.021C321.145 60.7811 317.737 62.8157 314.011 62.8157C309.374 62.8157 305.76 59.5878 305.76 53.0547C305.76 47.0882 309.486 43.2593 314.363 43.2593C319.557 43.2593 322.262 47.4058 322.262 52.531C322.262 52.7714 322.262 53.1234 322.193 53.69ZM308.104 51.9644H320.046C319.797 47.1912 317.411 45.0107 314.285 45.0107C311.229 45.0107 308.421 47.3286 308.104 51.9644Z" fill="#051F26"/>
</svg>
